<svg width="22" height="22" viewBox="0 0 22 22" fill="none" xmlns="http://www.w3.org/2000/svg">
<path d="M8.35748 13.5747C7.63357 13.5748 6.92591 13.3602 6.32399 12.958C5.72206 12.5559 5.25291 11.9843 4.97588 11.3155C4.69884 10.6467 4.62636 9.91074 4.76761 9.20075C4.90885 8.49076 5.25748 7.83861 5.76939 7.32676L9.54612 3.55151C10.2325 2.86511 11.1635 2.47949 12.1342 2.47949C13.1049 2.47949 14.0359 2.86511 14.7223 3.55151C15.4087 4.23792 15.7943 5.16888 15.7943 6.1396C15.7943 7.11032 15.4087 8.04128 14.7223 8.72769L14.3133 9.13598L13.2666 8.09084L13.6786 7.67884C14.0861 7.26943 14.3146 6.71514 14.3141 6.13751C14.3135 5.55988 14.0839 5.00603 13.6757 4.5974C13.2601 4.20085 12.7078 3.9796 12.1335 3.9796C11.5591 3.9796 11.0068 4.20085 10.5913 4.5974L6.81602 8.37265C6.61335 8.57509 6.45257 8.8155 6.34287 9.08012C6.23318 9.34474 6.17671 9.62839 6.17671 9.91485C6.17671 10.2013 6.23318 10.485 6.34287 10.7496C6.45257 11.0142 6.61335 11.2546 6.81602 11.4571C7.23154 11.8536 7.78384 12.0749 8.35822 12.0749C8.93259 12.0749 9.4849 11.8536 9.90042 11.4571L10.9463 12.5029C10.6071 12.8439 10.2036 13.1141 9.75922 13.2981C9.31486 13.482 8.83842 13.5761 8.35748 13.5747Z" fill="#999999" stroke="#999999" stroke-width="0.3"/>
<path d="M14.2735 12.0952C13.5496 12.0953 12.8419 11.8807 12.24 11.4785C11.6381 11.0764 11.1689 10.5048 10.8919 9.83597C10.6149 9.16718 10.5424 8.43125 10.6836 7.72126C10.8249 7.01127 11.1735 6.35911 11.6854 5.84727L12.0944 5.43898L13.1403 6.4856L12.732 6.8939C12.3231 7.30282 12.0934 7.85743 12.0934 8.43573C12.0934 9.01402 12.3231 9.56863 12.732 9.97756C13.1476 10.3741 13.6999 10.5954 14.2742 10.5954C14.8486 10.5954 15.4009 10.3741 15.8164 9.97756L19.5924 6.20157C20.0006 5.79239 20.2298 5.23804 20.2298 4.66011C20.2298 4.08218 20.0006 3.52783 19.5924 3.11865C19.1769 2.7221 18.6246 2.50085 18.0502 2.50085C17.4758 2.50085 16.9235 2.7221 16.508 3.11865L15.4621 2.07202C16.1485 1.38562 17.0795 1 18.0502 1C19.0209 1 19.9519 1.38562 20.6383 2.07202C21.3247 2.75842 21.7103 3.68939 21.7103 4.66011C21.7103 5.63083 21.3247 6.56179 20.6383 7.2482L16.8631 11.0227C16.5238 11.3637 16.1204 11.634 15.676 11.8181C15.2317 12.0022 14.7552 12.0964 14.2742 12.0952H14.2735Z" fill="#999999" stroke="#999999" stroke-width="0.3"/>
<path d="M17.2726 21.7109H2.47933C2.08711 21.7106 1.71106 21.5546 1.43372 21.2772C1.15637 20.9999 1.00039 20.6238 1 20.2316V5.43831C1.00039 5.04609 1.15637 4.67005 1.43372 4.3927C1.71106 4.11536 2.08711 3.95938 2.47933 3.95898H5.43799V5.43831H2.47933V20.2316H17.2726V12.835H18.752V20.2316C18.7516 20.6238 18.5956 20.9999 18.3182 21.2772C18.0409 21.5546 17.6649 21.7106 17.2726 21.7109Z" fill="#999999" stroke="#999999" stroke-width="0.3"/>
</svg>
