<svg width="32" height="32" viewBox="0 0 22 24" fill="none" xmlns="http://www.w3.org/2000/svg">
    <g clip-path="url(#clip0_190_28038)">
        <path d="M15.701 8.64173C17.2467 9.74615 19.1404 10.396 21.1856 10.396V6.46245C20.7985 6.4626 20.4125 6.42222 20.0338 6.34195V9.4382C17.9887 9.4382 16.0953 8.78846 14.5492 7.68413V15.7114C14.5492 19.7271 11.2922 22.9821 7.27472 22.9821C5.77571 22.9821 4.38239 22.5292 3.22501 21.7524C4.546 23.1024 6.38821 23.9398 8.42622 23.9398C12.444 23.9398 15.7011 20.6848 15.7011 16.6689V8.64173H15.701ZM17.1219 4.67329C16.3319 3.8107 15.8132 2.69594 15.701 1.4635V0.957596H14.6094C14.8842 2.52397 15.8214 3.86218 17.1219 4.67329ZM5.76603 18.6709C5.32462 18.0926 5.08604 17.3849 5.08716 16.6574C5.08716 14.8208 6.5769 13.3317 8.41488 13.3317C8.75736 13.3315 9.09782 13.384 9.42429 13.4875V9.46601C9.04277 9.41379 8.65778 9.39153 8.27295 9.39972V12.5298C7.94631 12.4263 7.60568 12.3738 7.26305 12.3741C5.42514 12.3741 3.93549 13.8631 3.93549 15.6999C3.93549 16.9987 4.68007 18.1231 5.76603 18.6709Z"
              fill="#FF004F"/>
        <path d="M14.5492 7.68405C16.0954 8.78838 17.9887 9.43812 20.0338 9.43812V6.34187C18.8922 6.09881 17.8817 5.50262 17.1219 4.67329C15.8213 3.86209 14.8842 2.52389 14.6095 0.957596H11.7425V16.6687C11.7359 18.5004 10.2488 19.9834 8.41474 19.9834C7.33408 19.9834 6.37392 19.4685 5.76589 18.6708C4.68009 18.1231 3.93543 16.9986 3.93543 15.7C3.93543 13.8633 5.42509 12.3741 7.26299 12.3741C7.61513 12.3741 7.95452 12.4289 8.27289 12.5299V9.3998C4.32597 9.48132 1.15176 12.7046 1.15176 16.6688C1.15176 18.6477 1.94219 20.4417 3.22512 21.7525C4.38249 22.5292 5.77574 22.9823 7.27483 22.9823C11.2923 22.9823 14.5493 19.727 14.5493 15.7114L14.5492 7.68405Z"
              fill="black"/>
        <path d="M20.0338 6.34179V5.50477C19.0044 5.50627 17.9953 5.21813 17.1218 4.6733C17.895 5.51927 18.913 6.10265 20.0338 6.34196M14.6094 0.957517C14.5832 0.807854 14.5631 0.657193 14.5491 0.505903V0H10.5905V15.7113C10.5842 17.5428 9.09699 19.0258 7.2629 19.0258C6.74295 19.0266 6.2301 18.905 5.76579 18.671C6.37382 19.4686 7.33399 19.9833 8.41465 19.9833C10.2486 19.9833 11.7359 18.5004 11.7424 16.6688V0.9576L14.6094 0.957517ZM8.27305 9.39972V8.5085C7.94225 8.46333 7.60876 8.44072 7.2749 8.4408C3.25697 8.4408 0 11.696 0 15.7113C0 18.2287 1.28003 20.4473 3.22519 21.7524C1.94226 20.4416 1.15183 18.6476 1.15183 16.6687C1.15183 12.7046 4.32596 9.48124 8.27305 9.39972Z"
              fill="#00F2EA"/>
    </g>
    <defs>
        <clipPath id="clip0_190_28038">
            <rect width="32" height="32" fill="white"/>
        </clipPath>
    </defs>
</svg>
