<svg xmlns="http://www.w3.org/2000/svg" width="20" height="18" viewBox="0 0 20 18"><path d="M13,11H3a.94.94,0,0,1-1-1V9A.94.94,0,0,1,3,8H13a.94.94,0,0,1,1,1v1A.94.94,0,0,1,13,11Zm9-6V4a.94.94,0,0,0-1-1H3A.94.94,0,0,0,2,4V5A.94.94,0,0,0,3,6H21A.94.94,0,0,0,22,5Z" transform="translate(-2 -3)" fill="#fff"/><path d="M21,16H3a.94.94,0,0,1-1-1V14a.94.94,0,0,1,1-1H21a.94.94,0,0,1,1,1v1A.94.94,0,0,1,21,16Zm-7,4V19a.94.94,0,0,0-1-1H3a.94.94,0,0,0-1,1v1a.94.94,0,0,0,1,1H13A.94.94,0,0,0,14,20Z" transform="translate(-2 -3)" fill="#fff" opacity="0.8" style="isolation:isolate"/></svg>