<svg xmlns="http://www.w3.org/2000/svg" xmlns:xlink="http://www.w3.org/1999/xlink" width="14.3" height="8.66" viewBox="0 0 14.3 8.66"><defs><clipPath id="a" transform="translate(-4.87 -7.5)"><rect width="24" height="24" transform="translate(-0.04 0.04) rotate(-0.21)" fill="none"/></clipPath></defs><g clip-path="url(#a)"><path d="M10.92,7.94A1.53,1.53,0,0,1,12,7.5,1.5,1.5,0,0,1,13,7.94l5.68,5.63a1.47,1.47,0,0,1,.45,1.06,1.5,1.5,0,0,1-.44,1.06,1.55,1.55,0,0,1-1.06.45,1.5,1.5,0,0,1-1.06-.44L12,11.12,7.42,15.73a1.49,1.49,0,0,1-1.06.43,1.45,1.45,0,0,1-1-.44,1.5,1.5,0,0,1-.45-1,1.56,1.56,0,0,1,.42-1.06l5.63-5.68Z" transform="translate(-4.87 -7.5)" fill="#262626" fill-rule="evenodd"/></g></svg>